<svg xmlns="http://www.w3.org/2000/svg" width="24" height="24" viewBox="0 0 24 24" fill="none">
  <path d="M12.1 3.80003C12.4084 3.54448 12.7594 3.34542 13.137 3.21203C13.5429 3.07015 13.9701 2.99846 14.4 3.00003C15.3283 3.00003 16.2185 3.36877 16.8749 4.02515C17.5313 4.68153 17.9 5.57177 17.9 6.50003C17.9 7.42828 17.5313 8.31852 16.8749 8.9749C16.2185 9.63128 15.3283 10 14.4 10C13.97 10.0018 13.5428 9.92972 13.137 9.78702C12.7593 9.65435 12.4082 9.4556 12.1 9.20003M16.2 21H21C21.0223 18.948 20.3333 16.9515 19.05 15.35C18.4978 14.6379 17.7941 14.0576 16.9898 13.6511C16.1855 13.2447 15.3009 13.0223 14.4 13C14.0521 12.9975 13.7046 13.027 13.362 13.088C13.0283 13.1462 12.7044 13.2513 12.4 13.4M16.2 21C16.2224 18.948 15.5333 16.9515 14.25 15.35C13.6978 14.6379 12.9941 14.0576 12.1898 13.6511C11.3855 13.2447 10.5009 13.0223 9.60004 13C8.69917 13.0223 7.81454 13.2447 7.01027 13.6511C6.20601 14.0576 5.50226 14.6379 4.95004 15.35C3.66677 16.9515 2.97772 18.948 3.00004 21H16.2ZM9.60004 3.00003C10.4098 3.00008 11.1944 3.28091 11.8203 3.79464C12.4463 4.30838 12.8747 5.02325 13.0326 5.81744C13.1905 6.61163 13.0682 7.43601 12.6864 8.15011C12.3046 8.86421 11.6871 9.42386 10.939 9.73369C10.1909 10.0435 9.35845 10.0844 8.58359 9.84926C7.80873 9.61416 7.13936 9.11766 6.68953 8.44436C6.2397 7.77106 6.03724 6.96262 6.11666 6.15678C6.19607 5.35094 6.55244 4.59757 7.12504 4.02503C7.44984 3.69972 7.83566 3.44172 8.26037 3.26583C8.68508 3.08994 9.14034 2.99961 9.60004 3.00003Z" stroke="#A3A3A3" stroke-width="2" stroke-linecap="round" stroke-linejoin="round"/>
</svg>