<svg xmlns="http://www.w3.org/2000/svg" width="24" height="24" viewBox="0 0 24 24" fill="none">
  <path d="M12.0001 3.00001L11.9988 4.00001H12.0001L12.0001 3.00001ZM5.63609 5.63601L6.3432 6.34312L6.34411 6.3422L5.63609 5.63601ZM9.00009 14C8.44781 14 8.00009 14.4477 8.00009 15C8.00009 15.5523 8.44781 16 9.00009 16V14ZM12.0001 16C12.5524 16 13.0001 15.5523 13.0001 15C13.0001 14.4477 12.5524 14 12.0001 14V16ZM10.0121 7.84401L9.0243 7.68822L9.02402 7.69002L10.0121 7.84401ZM10.8441 7.01201L10.9999 7.9998L11.0001 7.99977L10.8441 7.01201ZM13.5001 7.00001V6.00001V7.00001ZM9.00009 17C9.00009 17.5523 9.44781 18 10.0001 18C10.5524 18 11.0001 17.5523 11.0001 17H9.00009ZM9.00009 11C8.44781 11 8.00009 11.4477 8.00009 12C8.00009 12.5523 8.44781 13 9.00009 13V11ZM12.0001 4.00001C13.8509 4.00002 15.6445 4.64179 17.0752 5.81597L18.344 4.26996C16.5556 2.80224 14.3137 2.00003 12.0001 2.00001L12.0001 4.00001ZM17.0752 5.81597C18.5059 6.99014 19.4852 8.62407 19.8463 10.4393L21.8079 10.0492C21.3565 7.78008 20.1324 5.73767 18.344 4.26996L17.0752 5.81597ZM19.8463 10.4393C20.2074 12.2546 19.9278 14.1389 19.0554 15.7712L20.8192 16.714C21.9098 14.6737 22.2592 12.3183 21.8079 10.0492L19.8463 10.4393ZM19.0554 15.7712C18.1829 17.4035 16.7714 18.6828 15.0614 19.3911L15.8268 21.2388C17.9642 20.3535 19.7286 18.7544 20.8192 16.714L19.0554 15.7712ZM15.0614 19.3911C13.3515 20.0993 11.4488 20.1928 9.67768 19.6555L9.0971 21.5694C11.311 22.241 13.6893 22.1242 15.8268 21.2388L15.0614 19.3911ZM9.67768 19.6555C7.90654 19.1182 6.37649 17.9834 5.34823 16.4445L3.68528 17.5557C4.97061 19.4793 6.88317 20.8978 9.0971 21.5694L9.67768 19.6555ZM5.34823 16.4445C4.31997 14.9056 3.85712 13.0577 4.03854 11.2158L2.04817 11.0198C1.82139 13.3222 2.39995 15.632 3.68528 17.5557L5.34823 16.4445ZM4.03854 11.2158C4.21997 9.37389 5.03444 7.65185 6.34319 6.34312L4.92899 4.9289C3.29305 6.56481 2.27496 8.71736 2.04817 11.0198L4.03854 11.2158ZM6.34411 6.3422C7.08588 5.59852 7.9673 5.00876 8.93772 4.60681L8.17236 2.75905C6.95849 3.26184 5.85594 3.99956 4.92808 4.92981L6.34411 6.3422ZM8.93772 4.60681C9.90813 4.20486 10.9484 3.99864 11.9988 4.00001L12.0014 2.00001C10.6875 1.9983 9.38624 2.25625 8.17236 2.75905L8.93772 4.60681ZM9.00009 16H12.0001V14H9.00009V16ZM11.0001 12V8.20001H9.00009V12H11.0001ZM11.0001 8.20001C11.0001 8.1017 11.0002 8.04751 11.0012 8.00785C11.0022 7.9709 11.0036 7.97623 11.0002 7.99799L9.02402 7.69002C8.99707 7.86296 9.00009 8.05214 9.00009 8.20001H11.0001ZM10.9999 7.9998L9.58567 6.58558C9.2867 6.88455 9.09017 7.27057 9.0243 7.68822L10.9999 7.9998ZM10.9999 7.9998L10.6883 6.02422C10.2707 6.09009 9.88464 6.28662 9.58567 6.58558L10.9999 7.9998ZM11.0001 7.99977C10.9763 8.00352 10.9698 8.00216 11.0075 8.00115C11.0473 8.00009 11.1018 8.00001 11.2001 8.00001V6.00001C11.0536 6.00001 10.8615 5.99688 10.6881 6.02424L11.0001 7.99977ZM11.2001 8.00001H13.5001V6.00001H11.2001V8.00001ZM13.5001 8.00001C13.8979 8.00001 14.2794 8.15804 14.5608 8.43935L15.975 7.02513C15.3186 6.36876 14.4284 6.00001 13.5001 6.00001V8.00001ZM14.5608 8.43935C14.8421 8.72065 15.0001 9.10218 15.0001 9.50001H17.0001C17.0001 8.57175 16.6313 7.68151 15.975 7.02513L14.5608 8.43935ZM15.0001 9.50001C15.0001 9.89783 14.8421 10.2794 14.5608 10.5607L15.975 11.9749C16.6313 11.3185 17.0001 10.4283 17.0001 9.50001H15.0001ZM14.5608 10.5607C14.2794 10.842 13.8979 11 13.5001 11V13C14.4284 13 15.3186 12.6313 15.975 11.9749L14.5608 10.5607ZM13.5001 11H10.0001V13H13.5001V11ZM9.00009 12V17H11.0001V12H9.00009ZM10.0001 11H9.00009V13H10.0001V11Z" fill="#A3A3A3"/>
</svg>