<svg xmlns="http://www.w3.org/2000/svg" width="24" height="24" viewBox="0 0 24 24" fill="none">
  <path d="M10 12.6999H14M3.30004 7.59993H20.7M3.60004 7.09993L4.90004 5.34992L6.20004 3.59992C6.28379 3.41628 6.41801 3.26022 6.58704 3.14993C6.77325 3.04339 6.98568 2.99141 7.20004 2.99992H16.9C17.0998 3.00086 17.2966 3.04809 17.475 3.13792C17.6457 3.21977 17.7921 3.3445 17.9 3.49992L19.2 5.24992L20.5 6.99993C20.5921 7.09647 20.653 7.21839 20.675 7.34993C20.6949 7.46548 20.7033 7.58272 20.7 7.69992V20.9999H3.30004V7.79993C3.29704 7.66704 3.32262 7.53507 3.37504 7.41293C3.4298 7.29543 3.50612 7.18926 3.60004 7.09993Z" stroke="#A3A3A3" stroke-width="2" stroke-linecap="round" stroke-linejoin="round"/>
</svg>