<svg xmlns="http://www.w3.org/2000/svg" width="72" height="72" viewBox="0 0 72 72" fill="none">
  <rect width="72" height="72" rx="15.265" fill="#006BFF"/>
  <path fill-rule="evenodd" clip-rule="evenodd" d="M48.1444 29.7582C47.7724 26.9583 47.5863 25.5584 46.9791 24.4729C46.2492 23.1678 45.0919 22.1541 43.7021 21.6025C42.546 21.1436 41.1337 21.1436 38.3092 21.1436H24.6904C17.6728 21.1436 14.164 21.1436 12.2178 23.4012C10.2717 25.6588 10.7888 29.1293 11.8231 36.0703L12.3766 39.7845C13.165 45.0753 13.5592 47.7207 15.3896 49.2986C17.22 50.8765 19.8947 50.8765 25.2439 50.8765H48.1372C49.6272 50.8765 50.7764 49.5645 50.5801 48.0875C50.4174 46.8627 49.3728 45.9477 48.1372 45.9477H20.4513C19.0814 45.9477 17.9708 44.8372 17.9708 43.4673C17.9708 42.0974 19.0814 40.9869 20.4513 40.9869H38.3092C41.8963 40.9869 43.6898 40.9869 45.0237 40.347C46.6258 39.5784 47.8438 38.1879 48.3946 36.4985C48.8532 35.0919 48.6169 33.314 48.1444 29.7582Z" fill="white"/>
  <path fill-rule="evenodd" clip-rule="evenodd" d="M48.1444 29.7582C47.7724 26.9583 47.5863 25.5584 46.9791 24.4729C46.2492 23.1678 45.0919 22.1541 43.7021 21.6025C42.546 21.1436 41.1337 21.1436 38.3092 21.1436H24.6904C17.6728 21.1436 14.164 21.1436 12.2178 23.4012C10.2717 25.6588 10.7888 29.1293 11.8231 36.0703L12.3766 39.7845C13.165 45.0753 13.5592 47.7207 15.3896 49.2986C17.22 50.8765 19.8947 50.8765 25.2439 50.8765H48.1372C49.6272 50.8765 50.7764 49.5645 50.5801 48.0875C50.4174 46.8627 49.3728 45.9477 48.1372 45.9477H20.4513C19.0814 45.9477 17.9708 44.8372 17.9708 43.4673C17.9708 42.0974 19.0814 40.9869 20.4513 40.9869H38.3092C41.8963 40.9869 43.6898 40.9869 45.0237 40.347C46.6258 39.5784 47.8438 38.1879 48.3946 36.4985C48.8532 35.0919 48.6169 33.314 48.1444 29.7582Z" fill="url(#paint0_linear_4650_2775)" fill-opacity="0.3"/>
  <path d="M54.7547 21.1436C55.9809 21.1436 57.0193 22.0476 57.1881 23.2621L60.631 48.0298C60.8363 49.5069 59.6889 50.8248 58.1976 50.8248C56.9714 50.8248 55.933 49.9208 55.7642 48.7063L52.3213 23.9386C52.116 22.4615 53.2634 21.1436 54.7547 21.1436Z" fill="white"/>
  <path d="M54.7547 21.1436C55.9809 21.1436 57.0193 22.0476 57.1881 23.2621L60.631 48.0298C60.8363 49.5069 59.6889 50.8248 58.1976 50.8248C56.9714 50.8248 55.933 49.9208 55.7642 48.7063L52.3213 23.9386C52.116 22.4615 53.2634 21.1436 54.7547 21.1436Z" fill="url(#paint1_linear_4650_2775)" fill-opacity="0.3"/>
  <g filter="url(#filter0_d_4650_2775)">
    <path fill-rule="evenodd" clip-rule="evenodd" d="M16.5627 21.4238C14.5593 21.7055 13.1926 22.27 12.2178 23.4007C10.2717 25.6583 10.7888 29.1288 11.8231 36.0698L12.3766 39.784C13.165 45.0748 13.5592 47.7203 15.3896 49.2981C17.22 50.876 19.8947 50.876 25.2439 50.876H38.5134C35.8588 49.4951 33.3699 47.8397 31.0843 45.9472H20.4513C19.0814 45.9472 17.9708 44.8367 17.9708 43.4668C17.9708 42.0969 19.0814 40.9864 20.4513 40.9864H26.023C21.3024 35.5126 17.9674 28.8102 16.5627 21.4238Z" fill="white" fill-opacity="0.2" shape-rendering="crispEdges"/>
  </g>
  <defs>
    <filter id="filter0_d_4650_2775" x="4.67594" y="14.1539" width="42.151" height="43.992" filterUnits="userSpaceOnUse" color-interpolation-filters="sRGB">
      <feFlood flood-opacity="0" result="BackgroundImageFix"/>
      <feColorMatrix in="SourceAlpha" type="matrix" values="0 0 0 0 0 0 0 0 0 0 0 0 0 0 0 0 0 0 127 0" result="hardAlpha"/>
      <feOffset dx="1.04353"/>
      <feGaussianBlur stdDeviation="3.63497"/>
      <feComposite in2="hardAlpha" operator="out"/>
      <feColorMatrix type="matrix" values="0 0 0 0 0 0 0 0 0 0 0 0 0 0 0 0 0 0 0.05 0"/>
      <feBlend mode="normal" in2="BackgroundImageFix" result="effect1_dropShadow_4650_2775"/>
      <feBlend mode="normal" in="SourceGraphic" in2="effect1_dropShadow_4650_2775" result="shape"/>
    </filter>
    <linearGradient id="paint0_linear_4650_2775" x1="30.7522" y1="21.1436" x2="30.7522" y2="50.8765" gradientUnits="userSpaceOnUse">
      <stop stop-color="#5866B0"/>
      <stop offset="1" stop-color="#E7ECF3"/>
    </linearGradient>
    <linearGradient id="paint1_linear_4650_2775" x1="61.0195" y1="35.9842" x2="51.9328" y2="35.9842" gradientUnits="userSpaceOnUse">
      <stop stop-color="#5866B0"/>
      <stop offset="1" stop-color="#E7ECF3"/>
    </linearGradient>
  </defs>
</svg>