<svg xmlns="http://www.w3.org/2000/svg" width="24" height="24" viewBox="0 0 24 24" fill="none">
  <path d="M7.74396 11.8V7.3C7.74396 6.15957 8.197 5.06585 9.00341 4.25944C9.80981 3.45303 10.9035 3 12.044 3C13.1844 3 14.2781 3.45303 15.0845 4.25944C15.8909 5.06585 16.344 6.15957 16.344 7.3M12.044 15.5V17.5M18.644 21H5.44396C5.31055 21.008 5.17695 20.9876 5.05199 20.9402C4.92703 20.8928 4.81355 20.8194 4.71905 20.7249C4.62454 20.6304 4.55115 20.5169 4.50373 20.392C4.45632 20.267 4.43594 20.1334 4.44396 20V12.8C4.43594 12.6666 4.45632 12.533 4.50373 12.408C4.55115 12.2831 4.62454 12.1696 4.71905 12.0751C4.81355 11.9806 4.92703 11.9072 5.05199 11.8598C5.17695 11.8124 5.31055 11.792 5.44396 11.8H18.544C18.6774 11.792 18.811 11.8124 18.9359 11.8598C19.0609 11.9072 19.1744 11.9806 19.2689 12.0751C19.3634 12.1696 19.4368 12.2831 19.4842 12.408C19.5316 12.533 19.552 12.6666 19.544 12.8V20C19.5687 20.13 19.5611 20.2642 19.5219 20.3906C19.4827 20.517 19.413 20.6318 19.319 20.725C19.1385 20.9013 18.8962 21 18.644 21Z" stroke="#A3A3A3" stroke-width="2" stroke-linecap="round" stroke-linejoin="round"/>
</svg>