<svg xmlns="http://www.w3.org/2000/svg" width="20" height="20" viewBox="0 0 20 20" fill="none">
  <path d="M10 7.91681C10.482 7.9169 10.949 8.0841 11.3216 8.38994C11.6941 8.69577 11.949 9.12131 12.043 9.59405C12.1369 10.0668 12.0641 10.5575 11.8368 10.9825C11.6095 11.4076 11.2419 11.7406 10.7966 11.925C10.3512 12.1094 9.85576 12.1337 9.39455 11.9937C8.93334 11.8537 8.53493 11.5581 8.26721 11.1573C7.9995 10.7565 7.87903 10.2753 7.92634 9.79565C7.97365 9.31599 8.18581 8.86758 8.52667 8.52681C8.72016 8.33336 8.94986 8.17993 9.20266 8.07526C9.45546 7.9706 9.72639 7.91675 10 7.91681ZM10 4.66681C11.1153 4.65069 12.2204 4.8814 13.236 5.34242C14.2517 5.80344 15.1529 6.48336 15.875 7.33347C16.5689 8.12013 17.119 9.02279 17.5 10.0001C17.119 10.9775 16.5689 11.8801 15.875 12.6668C15.1529 13.5169 14.2517 14.1968 13.236 14.6579C12.2204 15.1189 11.1153 15.3496 10 15.3335C8.8847 15.3496 7.77964 15.1189 6.76396 14.6579C5.74828 14.1968 4.84711 13.5169 4.125 12.6668C3.43107 11.8801 2.88101 10.9775 2.5 10.0001C2.88101 9.02279 3.43107 8.12013 4.125 7.33347C4.84711 6.48336 5.74828 5.80344 6.76396 5.34242C7.77964 4.8814 8.8847 4.65069 10 4.66681Z" stroke="#A3A3A3" stroke-width="1.66667" stroke-linecap="round" stroke-linejoin="round"/>
</svg>