<svg xmlns="http://www.w3.org/2000/svg" width="20" height="20" viewBox="0 0 20 20" fill="none">
  <path d="M6.08333 13.8333H4.16667C3.72504 13.832 3.30189 13.656 2.98961 13.3437C2.67734 13.0314 2.50132 12.6083 2.5 12.1667V4.16667C2.50176 3.72518 2.67791 3.30228 2.99009 2.99009C3.30228 2.67791 3.72518 2.50176 4.16667 2.5H12.1667C12.6083 2.50132 13.0314 2.67734 13.3437 2.98961C13.656 3.30189 13.832 3.72504 13.8333 4.16667V6.08333M15.8333 17.5H7.83333C7.39131 17.5 6.96738 17.3244 6.65482 17.0118C6.34226 16.6993 6.16667 16.2754 6.16667 15.8333V7.83333C6.16667 7.39131 6.34226 6.96738 6.65482 6.65482C6.96738 6.34226 7.39131 6.16667 7.83333 6.16667H15.8333C16.2754 6.16667 16.6993 6.34226 17.0118 6.65482C17.3244 6.96738 17.5 7.39131 17.5 7.83333V15.8333C17.5 16.2754 17.3244 16.6993 17.0118 17.0118C16.6993 17.3244 16.2754 17.5 15.8333 17.5Z" stroke="#A3A3A3" stroke-width="1.66667" stroke-linecap="round" stroke-linejoin="round"/>
</svg>