<svg xmlns="http://www.w3.org/2000/svg" width="24" height="24" viewBox="0 0 24 24" fill="none">
  <path d="M3.39996 6.20026H20.6M5.29996 6.20026V19.0003C5.29402 19.5224 5.48628 20.0273 5.83796 20.4133C6.01168 20.6004 6.22253 20.7493 6.45705 20.8504C6.69157 20.9515 6.9446 21.0025 7.19996 21.0003H16.8C17.0489 20.996 17.2944 20.9419 17.5219 20.841C17.7495 20.7402 17.9546 20.5947 18.125 20.4133C18.4922 20.0344 18.6983 19.5279 18.7 19.0003V6.20026M9.99996 15.6003V11.6003M14 11.6003V15.6003M9.39996 6.20026V3.90026C9.39343 3.66959 9.4685 3.44401 9.61196 3.26326C9.6841 3.17828 9.77436 3.11054 9.87611 3.06503C9.97787 3.01951 10.0885 2.99738 10.2 3.00026H13.8C13.9113 2.99732 14.0218 3.01942 14.1234 3.06495C14.225 3.11047 14.3151 3.17824 14.387 3.26326C14.5312 3.44366 14.6067 3.6694 14.6 3.90026V6.20026" stroke="#A3A3A3" stroke-width="1.66667" stroke-linecap="round" stroke-linejoin="round"/>
</svg>