<svg xmlns="http://www.w3.org/2000/svg" width="24" height="24" viewBox="0 0 24 24" fill="none">
  <path d="M18.8871 13.4124V18.8124C18.8816 19.3941 18.648 19.9505 18.2366 20.3619C17.8252 20.7733 17.2688 21.0069 16.6871 21.0124H5.18706C4.60528 21.0069 4.04888 20.7733 3.63748 20.3619C3.22608 19.9505 2.99254 19.3941 2.98706 18.8124V7.31336C2.99228 6.7315 3.22574 6.17495 3.63719 5.76349C4.04865 5.35204 4.6052 5.11858 5.18706 5.11336H10.5871M20.4771 3.52336C20.2036 3.24068 19.8429 3.05852 19.4531 3.00636C19.3649 2.99403 19.2761 2.98768 19.1871 2.98736C18.7012 2.98366 18.2337 3.17282 17.8871 3.51336L14.0871 7.31336L10.2871 11.1134V13.7134H12.8871L16.6871 9.91336L20.4871 6.11336C20.6582 5.95941 20.7938 5.77015 20.8846 5.55865C20.9755 5.34715 21.0193 5.11845 21.0131 4.88836C21.0176 4.38116 20.8255 3.89192 20.4771 3.52336Z" stroke="#A3A3A3" stroke-width="2" stroke-linecap="round" stroke-linejoin="round"/>
</svg>