<svg xmlns="http://www.w3.org/2000/svg" width="24" height="24" viewBox="0 0 24 24" fill="none">
  <path d="M18.7 17.9H5.29999M6.59999 17.9V10.4C6.59999 9.69086 6.73966 8.98867 7.01104 8.33351C7.28241 7.67835 7.68017 7.08306 8.18161 6.58162C8.68305 6.08019 9.27834 5.68243 9.9335 5.41105C10.5887 5.13967 11.2908 5 12 5M12 5C12.7091 5 13.4113 5.13967 14.0665 5.41105C14.7216 5.68243 15.3169 6.08019 15.8184 6.58162C16.3198 7.08306 16.7176 7.67835 16.9889 8.33351C17.2603 8.98867 17.4 9.69086 17.4 10.4V17.9M12 5V3M9.99999 18.3C9.95383 18.3943 9.92407 18.4957 9.91199 18.6C9.902 18.6997 9.89799 18.7998 9.89999 18.9C9.89999 19.1758 9.95431 19.4489 10.0598 19.7036C10.1654 19.9584 10.3201 20.1899 10.5151 20.3849C10.7101 20.5799 10.9416 20.7346 11.1964 20.8401C11.4511 20.9457 11.7242 21 12 21C12.2758 21 12.5488 20.9457 12.8036 20.8401C13.0584 20.7346 13.2899 20.5799 13.4849 20.3849C13.6799 20.1899 13.8346 19.9584 13.9401 19.7036C14.0457 19.4489 14.1 19.1758 14.1 18.9C14.1019 18.7955 14.0975 18.691 14.087 18.587C14.0722 18.4552 14.043 18.3254 14 18.2" stroke="#222222" stroke-width="2" stroke-linecap="round" stroke-linejoin="round"/>
</svg>