<svg xmlns="http://www.w3.org/2000/svg" width="24" height="24" viewBox="0 0 24 24" fill="none">
  <path d="M12 3C12.8097 3.00006 13.5944 3.28088 14.2203 3.79462C14.8462 4.30836 15.2746 5.02322 15.4325 5.81741C15.5904 6.61161 15.4681 7.43599 15.0864 8.15009C14.7046 8.86419 14.087 9.42383 13.3389 9.73366C12.5908 10.0435 11.7584 10.0843 10.9835 9.84923C10.2087 9.61413 9.53931 9.11763 9.08948 8.44433C8.63965 7.77103 8.43719 6.96259 8.5166 6.15675C8.59602 5.35092 8.95238 4.59755 9.52498 4.025C9.84979 3.69969 10.2356 3.4417 10.6603 3.26581C11.085 3.08991 11.5403 2.99959 12 3ZM18.2 21C18.2285 18.9674 17.5872 16.9819 16.375 15.35C15.876 14.6478 15.2215 14.0704 14.4626 13.6628C13.7037 13.2552 12.8609 13.0283 12 13C11.139 13.0283 10.2962 13.2552 9.53735 13.6628C8.77847 14.0704 8.124 14.6478 7.62498 15.35C6.41278 16.9819 5.77145 18.9674 5.79998 21H18.2Z" stroke="#222222" stroke-width="2" stroke-linecap="round" stroke-linejoin="round"/>
</svg>